<svg width="205" height="205" viewBox="0 0 205 205" fill="none" xmlns="http://www.w3.org/2000/svg">
<g filter="url(#filter0_d)">
<rect x="54" y="22" width="97" height="97" rx="10" fill="#FFDC25"/>
</g>
<circle cx="96.3756" cy="64.375" r="6.63542" stroke="white" stroke-width="3.0625"/>
<path d="M106.585 84.7917C106.585 80.7083 102.014 76.625 96.3763 76.625C90.7384 76.625 86.168 80.7083 86.168 84.7917" stroke="white" stroke-width="3.0625" stroke-linecap="round" stroke-linejoin="round"/>
<path d="M115.846 70.2083C115.846 72.5843 113.92 74.5104 111.544 74.5104C109.168 74.5104 107.242 72.5843 107.242 70.2083C107.242 67.8324 109.168 65.9062 111.544 65.9062C113.92 65.9062 115.846 67.8324 115.846 70.2083Z" stroke="white" stroke-width="3.0625"/>
<path d="M118.835 84.7916C118.835 81.8749 115.57 78.9583 111.543 78.9583C109.292 78.9583 107.279 79.8698 105.941 81.1832" stroke="white" stroke-width="3.0625" stroke-linecap="round" stroke-linejoin="round"/>
<defs>
<filter id="filter0_d" x="0" y="0" width="205" height="205" filterUnits="userSpaceOnUse" color-interpolation-filters="sRGB">
<feFlood flood-opacity="0" result="BackgroundImageFix"/>
<feColorMatrix in="SourceAlpha" type="matrix" values="0 0 0 0 0 0 0 0 0 0 0 0 0 0 0 0 0 0 127 0" result="hardAlpha"/>
<feOffset dy="32"/>
<feGaussianBlur stdDeviation="27"/>
<feColorMatrix type="matrix" values="0 0 0 0 1 0 0 0 0 0.862745 0 0 0 0 0.145098 0 0 0 0.224553 0"/>
<feBlend mode="normal" in2="BackgroundImageFix" result="effect1_dropShadow"/>
<feBlend mode="normal" in="SourceGraphic" in2="effect1_dropShadow" result="shape"/>
</filter>
</defs>
</svg>
