<svg width="160" height="18" viewBox="0 0 160 18" fill="none" xmlns="http://www.w3.org/2000/svg">
<g clip-path="url(#clip0)">
<path d="M136.676 3.957C136.731 2.87818 137.203 1.8629 137.992 1.12485C138.78 0.386802 139.825 -0.0164422 140.905 -4.79378e-06C141.555 0.0174112 142.195 0.166694 142.786 0.4388C143.377 0.710905 143.907 1.10017 144.343 1.583L155.718 12.529V0.228995H159.97V12.529C159.997 13.112 159.909 13.6947 159.709 14.2432C159.51 14.7918 159.204 15.2953 158.808 15.7245C158.412 16.1537 157.936 16.5001 157.405 16.7436C156.875 16.9871 156.301 17.1229 155.718 17.143C154.474 17.143 153.661 16.668 151.104 14.429L140.905 4.48099V16.961H136.676V3.957Z" fill="white"/>
<path d="M130.183 5.92505C130.183 5.22505 130.161 4.52506 129.233 4.52506H116.321C115.302 4.52506 115.302 5.06805 115.302 5.61005V11.1741C115.302 11.9891 115.414 12.5741 116.302 12.5741H129.193C130.188 12.5741 130.188 12.0081 130.188 11.3971L130.183 5.92505ZM134.549 11.8951C134.549 15.1301 132.449 16.9611 129.234 16.9611H116.322C113.201 16.9611 110.984 15.0161 110.984 11.8951V5.04606C111.076 3.70368 111.687 2.44988 112.688 1.5506C113.689 0.651315 115.001 0.177287 116.345 0.229054H129.235C132.74 0.229054 134.55 2.42205 134.55 5.54405L134.549 11.8951Z" fill="white"/>
<path d="M108.766 12.546V16.934H90.3341C87.2141 16.934 84.9961 14.989 84.9961 11.867V5.02002C85.089 3.68016 85.7011 2.42945 86.7021 1.53408C87.7032 0.638715 89.0142 0.169399 90.3561 0.226023H108.72V4.50002H90.3331C89.3151 4.50002 89.3151 5.04302 89.3151 5.58502V11.146C89.3151 11.96 89.4281 12.546 90.3101 12.546H108.766Z" fill="white"/>
<path d="M82.8934 0.225952H78.2344V16.962H82.8934V0.225952Z" fill="white"/>
<path d="M70.5178 12.6639C71.4678 12.6639 71.4678 11.7639 71.4918 10.7189H56.5648V12.6419L70.5178 12.6639ZM71.4918 6.39995C71.4918 5.38195 71.4918 4.52195 70.5178 4.52195H56.5638V6.39995H71.4918ZM52.1538 0.199951H70.6777C75.9467 0.199951 75.9468 2.39295 75.9468 5.39995C76.0221 5.95765 75.9764 6.52505 75.8126 7.06347C75.6489 7.60188 75.3709 8.09866 74.9978 8.51995C75.7924 9.4254 76.2548 10.5745 76.3088 11.778C76.3088 14.808 75.9468 16.956 70.7008 16.956H52.1328L52.1538 0.199951Z" fill="white"/>
<path d="M45.4858 0.225952H49.8278V11.895C49.8278 15.13 47.7278 16.9609 44.5138 16.9609H31.5948C28.4728 16.9609 26.2578 15.016 26.2578 11.895V0.225952H30.5768V11.172C30.5768 11.986 30.6898 12.5719 31.5768 12.5719H44.4688C45.4628 12.5719 45.4628 12.006 45.4628 11.395L45.4858 0.225952Z" fill="white"/>
<path d="M4.38696 6.51405H18.138C18.929 6.51405 19.138 5.54105 19.138 4.52305H4.38696V6.51405ZM0.0219727 0.248047H19.133C23.34 0.248047 23.34 1.56005 23.34 5.54105C23.4115 6.06765 23.3632 6.60362 23.1985 7.10891C23.0338 7.6142 22.7571 8.07574 22.389 8.45905C22.864 9.15905 23.498 9.56705 23.498 10.719L24.289 16.961H19.879L19.133 10.719H4.38696V16.961H0L0.0219727 0.248047Z" fill="white"/>
</g>
<defs>
<clipPath id="clip0">
<rect width="159.97" height="17.143" fill="white"/>
</clipPath>
</defs>
</svg>
