<svg width="205" height="205" viewBox="0 0 205 205" fill="none" xmlns="http://www.w3.org/2000/svg">
<g filter="url(#filter0_d)">
<rect x="54" y="22" width="97" height="97" rx="10" fill="#253BFF"/>
</g>
<path d="M106.584 68.4582L102.583 72.459C101.786 73.2563 100.493 73.2563 99.6959 72.459L98.4173 71.1804M116.792 62.6597V70.0062C116.792 76.6201 112.804 82.5812 106.69 85.1043L104.058 86.1903C103.061 86.6021 101.941 86.6021 100.943 86.1903L98.3114 85.1043C92.1976 82.5812 88.209 76.6201 88.209 70.0062V62.6597C88.209 60.7458 89.5382 59.0887 91.4065 58.6736L92.3337 58.4675C94.3398 58.0217 96.2819 57.3253 98.1141 56.3946L100.651 55.1058C101.814 54.5155 103.188 54.5155 104.35 55.1058L106.887 56.3946C108.719 57.3253 110.661 58.0217 112.668 58.4675L113.595 58.6736C115.463 59.0887 116.792 60.7458 116.792 62.6597Z" stroke="white" stroke-width="3.0625" stroke-linecap="round" stroke-linejoin="round"/>
<defs>
<filter id="filter0_d" x="0" y="0" width="205" height="205" filterUnits="userSpaceOnUse" color-interpolation-filters="sRGB">
<feFlood flood-opacity="0" result="BackgroundImageFix"/>
<feColorMatrix in="SourceAlpha" type="matrix" values="0 0 0 0 0 0 0 0 0 0 0 0 0 0 0 0 0 0 127 0" result="hardAlpha"/>
<feOffset dy="32"/>
<feGaussianBlur stdDeviation="27"/>
<feColorMatrix type="matrix" values="0 0 0 0 0.145098 0 0 0 0 0.231373 0 0 0 0 1 0 0 0 0.224553 0"/>
<feBlend mode="normal" in2="BackgroundImageFix" result="effect1_dropShadow"/>
<feBlend mode="normal" in="SourceGraphic" in2="effect1_dropShadow" result="shape"/>
</filter>
</defs>
</svg>
