<svg width="205" height="205" viewBox="0 0 205 205" fill="none" xmlns="http://www.w3.org/2000/svg">
<g filter="url(#filter0_d)">
<rect x="54" y="22" width="97" height="97" rx="10" fill="#25D8FF"/>
</g>
<path fill-rule="evenodd" clip-rule="evenodd" d="M90.631 85.841L80 75L83 72L91 77L114 53L117 55L93.65 85.653C93.2981 86.1148 92.7629 86.4009 92.1835 86.437C91.604 86.4731 91.0374 86.2556 90.631 85.841Z" fill="white"/>
<path opacity="0.497489" fill-rule="evenodd" clip-rule="evenodd" d="M125 62H120C119.448 62 119 61.5523 119 61C119 60.4477 119.448 60 120 60H125C125.552 60 126 60.4477 126 61C126 61.5523 125.552 62 125 62Z" fill="white"/>
<path opacity="0.497489" fill-rule="evenodd" clip-rule="evenodd" d="M125 71H113C112.448 71 112 70.5523 112 70C112 69.4477 112.448 69 113 69H125C125.552 69 126 69.4477 126 70C126 70.5523 125.552 71 125 71Z" fill="white"/>
<path opacity="0.497489" fill-rule="evenodd" clip-rule="evenodd" d="M125 80H106C105.448 80 105 79.5523 105 79C105 78.4477 105.448 78 106 78H125C125.552 78 126 78.4477 126 79C126 79.5523 125.552 80 125 80Z" fill="white"/>
<path opacity="0.497489" fill-rule="evenodd" clip-rule="evenodd" d="M125 89H99C98.4477 89 98 88.5523 98 88C98 87.4477 98.4477 87 99 87H125C125.552 87 126 87.4477 126 88C126 88.5523 125.552 89 125 89Z" fill="white"/>
<defs>
<filter id="filter0_d" x="0" y="0" width="205" height="205" filterUnits="userSpaceOnUse" color-interpolation-filters="sRGB">
<feFlood flood-opacity="0" result="BackgroundImageFix"/>
<feColorMatrix in="SourceAlpha" type="matrix" values="0 0 0 0 0 0 0 0 0 0 0 0 0 0 0 0 0 0 127 0" result="hardAlpha"/>
<feOffset dy="32"/>
<feGaussianBlur stdDeviation="27"/>
<feColorMatrix type="matrix" values="0 0 0 0 0.145098 0 0 0 0 0.847059 0 0 0 0 1 0 0 0 0.224553 0"/>
<feBlend mode="normal" in2="BackgroundImageFix" result="effect1_dropShadow"/>
<feBlend mode="normal" in="SourceGraphic" in2="effect1_dropShadow" result="shape"/>
</filter>
</defs>
</svg>
