<svg width="205" height="205" viewBox="0 0 205 205" fill="none" xmlns="http://www.w3.org/2000/svg">
<g filter="url(#filter0_d)">
<rect x="54" y="22" width="97" height="97" rx="10" fill="#FF8125"/>
</g>
<path d="M108.624 62.3333L108.624 84.7917M96.3743 62.3333L96.3743 66.4167M96.3743 72.5417V74.5833M114.749 68.4583H116.791C117.919 68.4583 118.833 67.5442 118.833 66.4167V60.2917C118.833 59.1641 117.919 58.25 116.791 58.25H88.2077C87.0801 58.25 86.166 59.1641 86.166 60.2917V66.4167C86.166 67.5442 87.0801 68.4583 88.2077 68.4583H90.2493M110.666 84.7917H94.3327C92.0775 84.7917 90.2493 82.9635 90.2493 80.7083L90.2493 64.375C90.2493 63.2474 91.1634 62.3333 92.291 62.3333L112.708 62.3333C113.835 62.3333 114.749 63.2474 114.749 64.375V80.7083C114.749 82.9635 112.921 84.7917 110.666 84.7917Z" stroke="white" stroke-width="3.0625" stroke-linecap="round" stroke-linejoin="round"/>
<defs>
<filter id="filter0_d" x="0" y="0" width="205" height="205" filterUnits="userSpaceOnUse" color-interpolation-filters="sRGB">
<feFlood flood-opacity="0" result="BackgroundImageFix"/>
<feColorMatrix in="SourceAlpha" type="matrix" values="0 0 0 0 0 0 0 0 0 0 0 0 0 0 0 0 0 0 127 0" result="hardAlpha"/>
<feOffset dy="32"/>
<feGaussianBlur stdDeviation="27"/>
<feColorMatrix type="matrix" values="0 0 0 0 1 0 0 0 0 0.505882 0 0 0 0 0.145098 0 0 0 0.224553 0"/>
<feBlend mode="normal" in2="BackgroundImageFix" result="effect1_dropShadow"/>
<feBlend mode="normal" in="SourceGraphic" in2="effect1_dropShadow" result="shape"/>
</filter>
</defs>
</svg>
