<svg width="199" height="58" viewBox="0 0 199 58" fill="none" xmlns="http://www.w3.org/2000/svg">
<path d="M40.4142 49.071C40.4482 49.103 40.4642 49.148 40.4642 49.204V52.97C40.4602 53.026 40.4412 53.069 40.4052 53.103C40.3702 53.137 40.3262 53.153 40.2752 53.153C40.2242 53.153 40.1812 53.135 40.1462 53.1C40.1112 53.065 40.0922 53.022 40.0922 52.97V51.211H37.6962V52.97C37.6932 53.022 37.6732 53.065 37.6372 53.1C37.6012 53.135 37.5582 53.153 37.5072 53.153C37.4522 53.153 37.4072 53.137 37.3742 53.103C37.3412 53.069 37.3242 53.026 37.3242 52.97V49.204C37.3242 49.148 37.3422 49.103 37.3772 49.071C37.4132 49.038 37.4582 49.021 37.5132 49.021C37.5652 49.021 37.6082 49.038 37.6432 49.074C37.6782 49.111 37.6952 49.152 37.6952 49.204V50.868H40.0912V49.204C40.0912 49.152 40.1112 49.111 40.1482 49.074C40.1852 49.038 40.2302 49.021 40.2812 49.021C40.3362 49.021 40.3802 49.038 40.4142 49.071Z" fill="white"/>
<path d="M45.9483 49.287L44.6313 51.1V52.975C44.6313 53.028 44.6143 53.069 44.5783 53.103C44.5423 53.137 44.4993 53.153 44.4483 53.153C44.3973 53.153 44.3553 53.137 44.3223 53.103C44.2883 53.069 44.2713 53.028 44.2713 52.975V51.106L42.9493 49.299C42.9183 49.264 42.9023 49.221 42.9023 49.175C42.9023 49.128 42.9223 49.086 42.9613 49.051C43.0013 49.016 43.0443 48.998 43.0913 48.998C43.1543 48.998 43.2033 49.024 43.2383 49.08L44.4593 50.744L45.6513 49.08C45.6953 49.024 45.7463 48.998 45.8053 48.998C45.8523 48.998 45.8933 49.018 45.9293 49.055C45.9653 49.092 45.9823 49.131 45.9823 49.175C45.9833 49.201 45.9723 49.24 45.9483 49.287Z" fill="white"/>
<path d="M51.4033 51.119C51.4363 51.153 51.4533 51.195 51.4533 51.246V52.668C51.4533 52.736 51.4243 52.789 51.3643 52.828C51.1873 52.951 50.9903 53.045 50.7743 53.111C50.5573 53.178 50.3373 53.213 50.1133 53.213C49.7113 53.213 49.3493 53.119 49.0273 52.936C48.7043 52.75 48.4503 52.496 48.2653 52.173C48.0803 51.85 47.9883 51.488 47.9883 51.087C47.9883 50.686 48.0803 50.324 48.2653 50.002C48.4503 49.678 48.7043 49.424 49.0273 49.24C49.3493 49.054 49.7123 48.963 50.1133 48.963C50.3213 48.963 50.5233 48.988 50.7173 49.038C50.9123 49.09 51.0863 49.162 51.2393 49.257C51.2943 49.293 51.3223 49.342 51.3223 49.405C51.3223 49.457 51.3053 49.5 51.2713 49.534C51.2383 49.57 51.1993 49.588 51.1563 49.588C51.1163 49.588 51.0813 49.578 51.0503 49.559C50.7553 49.397 50.4413 49.316 50.1123 49.316C49.7773 49.316 49.4773 49.393 49.2113 49.547C48.9463 49.699 48.7383 49.912 48.5893 50.181C48.4393 50.451 48.3653 50.753 48.3653 51.087C48.3653 51.422 48.4393 51.724 48.5893 51.994C48.7383 52.262 48.9463 52.473 49.2113 52.628C49.4773 52.781 49.7773 52.857 50.1123 52.857C50.2803 52.857 50.4503 52.834 50.6223 52.787C50.7933 52.74 50.9463 52.675 51.0803 52.594V51.424H50.1493C50.0983 51.424 50.0543 51.406 50.0193 51.373C49.9833 51.34 49.9653 51.298 49.9653 51.246C49.9653 51.195 49.9833 51.153 50.0193 51.119C50.0543 51.086 50.0983 51.068 50.1493 51.068H51.2763C51.3273 51.068 51.3703 51.086 51.4033 51.119Z" fill="white"/>
<path d="M54.4487 53.1C54.4137 53.135 54.3697 53.153 54.3197 53.153C54.2637 53.153 54.2197 53.137 54.1857 53.103C54.1527 53.069 54.1367 53.026 54.1367 52.97V49.204C54.1367 49.148 54.1547 49.103 54.1897 49.071C54.2257 49.038 54.2707 49.021 54.3257 49.021C54.3777 49.021 54.4197 49.038 54.4557 49.074C54.4907 49.111 54.5087 49.152 54.5087 49.204V52.97C54.5037 53.021 54.4847 53.064 54.4487 53.1Z" fill="white"/>
<path d="M59.8538 52.857C59.8868 52.893 59.9028 52.935 59.9028 52.98C59.9028 53.033 59.8858 53.074 59.8538 53.105C59.8188 53.136 59.7768 53.152 59.7268 53.152H57.5598C57.5088 53.152 57.4658 53.136 57.4328 53.102C57.3998 53.068 57.3828 53.027 57.3828 52.974V49.197C57.3828 49.146 57.3998 49.103 57.4328 49.071C57.4658 49.038 57.5088 49.021 57.5598 49.021H59.7268C59.7778 49.021 59.8198 49.038 59.8538 49.071C59.8868 49.103 59.9028 49.146 59.9028 49.197C59.9028 49.25 59.8858 49.291 59.8538 49.322C59.8188 49.353 59.7768 49.369 59.7268 49.369H57.7548V50.849H59.4608C59.5118 50.849 59.5548 50.868 59.5878 50.901C59.6218 50.934 59.6388 50.976 59.6388 51.027C59.6388 51.08 59.6218 51.121 59.5878 51.152C59.5548 51.183 59.5118 51.199 59.4608 51.199H57.7548V52.803H59.7268C59.7768 52.804 59.8188 52.822 59.8538 52.857Z" fill="white"/>
<path d="M65.6489 49.068C65.6779 49.1 65.6929 49.138 65.6929 49.185V52.964C65.6929 53.023 65.6749 53.068 65.6389 53.102C65.6029 53.136 65.5599 53.152 65.5099 53.152C65.4829 53.152 65.4559 53.146 65.4299 53.134C65.4039 53.122 65.3829 53.109 65.3669 53.093L62.8349 49.681V52.994C62.8349 53.037 62.8179 53.074 62.7849 53.105C62.7509 53.136 62.7129 53.152 62.6699 53.152C62.6229 53.152 62.5829 53.136 62.5509 53.105C62.5189 53.074 62.5039 53.037 62.5039 52.994V49.197C62.5039 49.142 62.5209 49.1 62.5539 49.068C62.5869 49.036 62.6279 49.021 62.6749 49.021C62.7379 49.021 62.7849 49.042 62.8169 49.085L65.3609 52.515V49.185C65.3609 49.138 65.3769 49.1 65.4079 49.068C65.4389 49.036 65.4779 49.021 65.5249 49.021C65.5789 49.021 65.6189 49.036 65.6489 49.068Z" fill="white"/>
<path d="M71.0413 52.857C71.0743 52.893 71.0913 52.935 71.0913 52.98C71.0913 53.033 71.0743 53.074 71.0413 53.105C71.0073 53.136 70.9653 53.152 70.9143 53.152H68.7473C68.6963 53.152 68.6533 53.136 68.6203 53.102C68.5863 53.068 68.5703 53.027 68.5703 52.974V49.197C68.5703 49.146 68.5863 49.103 68.6203 49.071C68.6533 49.038 68.6963 49.021 68.7473 49.021H70.9143C70.9653 49.021 71.0073 49.038 71.0413 49.071C71.0743 49.103 71.0913 49.146 71.0913 49.197C71.0913 49.25 71.0743 49.291 71.0413 49.322C71.0073 49.353 70.9653 49.369 70.9143 49.369H68.9423V50.849H70.6483C70.7003 50.849 70.7423 50.868 70.7753 50.901C70.8093 50.934 70.8253 50.976 70.8253 51.027C70.8253 51.08 70.8083 51.121 70.7753 51.152C70.7423 51.183 70.7003 51.199 70.6483 51.199H68.9423V52.803H70.9143C70.9653 52.804 71.0083 52.822 71.0413 52.857Z" fill="white"/>
<path d="M80.1723 52.986C80.1723 53.039 80.1543 53.08 80.1193 53.111C80.0833 53.142 80.0423 53.158 79.9953 53.158C79.9553 53.158 79.9213 53.148 79.8913 53.127C79.8623 53.104 79.8393 53.076 79.8233 53.041L79.3813 51.961H77.4623L77.0253 53.041C76.9933 53.119 76.9403 53.158 76.8663 53.158C76.8103 53.158 76.7693 53.144 76.7423 53.118C76.7153 53.092 76.6993 53.053 76.6953 53.006V52.986C76.6953 52.965 76.6963 52.947 76.7003 52.935L78.2583 49.121C78.2893 49.043 78.3493 49.004 78.4353 49.004C78.4753 49.004 78.5093 49.016 78.5393 49.036C78.5683 49.058 78.5913 49.086 78.6063 49.121L80.1593 52.918C80.1693 52.949 80.1723 52.973 80.1723 52.986ZM77.5993 51.613H79.2403L78.4133 49.593L77.5993 51.613Z" fill="white"/>
<path d="M85.813 49.068C85.842 49.1 85.857 49.138 85.857 49.185V52.964C85.857 53.023 85.84 53.068 85.804 53.102C85.769 53.136 85.725 53.152 85.675 53.152C85.647 53.152 85.62 53.146 85.594 53.134C85.569 53.122 85.548 53.109 85.532 53.093L82.999 49.681V52.994C82.999 53.037 82.982 53.074 82.949 53.105C82.915 53.136 82.877 53.152 82.834 53.152C82.787 53.152 82.747 53.136 82.715 53.105C82.684 53.074 82.668 53.037 82.668 52.994V49.197C82.668 49.142 82.685 49.1 82.718 49.068C82.751 49.036 82.792 49.021 82.839 49.021C82.902 49.021 82.949 49.042 82.981 49.085L85.525 52.515V49.185C85.525 49.138 85.541 49.1 85.572 49.068C85.603 49.036 85.643 49.021 85.69 49.021C85.743 49.021 85.783 49.036 85.813 49.068Z" fill="white"/>
<path d="M91.3733 49.301C91.6303 49.489 91.8243 49.739 91.9513 50.051C92.0793 50.365 92.1433 50.709 92.1433 51.087C92.1433 51.477 92.0793 51.826 91.9513 52.139C91.8243 52.45 91.6303 52.696 91.3733 52.879C91.1153 53.061 90.7973 53.152 90.4203 53.152H88.9153C88.8643 53.152 88.8213 53.136 88.7883 53.102C88.7553 53.068 88.7383 53.027 88.7383 52.974V49.197C88.7383 49.146 88.7553 49.103 88.7883 49.071C88.8213 49.038 88.8643 49.021 88.9153 49.021H90.4203C90.7973 49.021 91.1153 49.114 91.3733 49.301ZM91.4173 52.33C91.6493 52.014 91.7663 51.6 91.7663 51.087C91.7663 50.769 91.7173 50.481 91.6193 50.223C91.5203 49.964 91.3663 49.758 91.1563 49.602C90.9453 49.448 90.6803 49.37 90.3623 49.37H89.1113V52.805H90.3623C90.8333 52.804 91.1853 52.647 91.4173 52.33Z" fill="white"/>
<path d="M101.239 49.476C101.239 49.511 101.225 49.55 101.198 49.594C101.162 49.638 101.117 49.658 101.062 49.658C101.03 49.658 100.999 49.648 100.968 49.63C100.653 49.421 100.309 49.316 99.9343 49.316C99.6163 49.316 99.3273 49.391 99.0703 49.542C98.8123 49.69 98.6103 49.9 98.4623 50.171C98.3153 50.439 98.2403 50.745 98.2403 51.088C98.2403 51.439 98.3153 51.747 98.4643 52.019C98.6143 52.289 98.8183 52.497 99.0763 52.644C99.3333 52.792 99.6193 52.866 99.9343 52.866C100.309 52.866 100.65 52.763 100.961 52.559C100.992 52.538 101.026 52.529 101.062 52.529C101.117 52.529 101.162 52.552 101.198 52.599C101.225 52.631 101.239 52.668 101.239 52.712C101.239 52.774 101.212 52.821 101.156 52.853C101.003 52.956 100.814 53.041 100.59 53.111C100.365 53.179 100.147 53.215 99.9343 53.215C99.5603 53.215 99.2153 53.125 98.8993 52.945C98.5823 52.766 98.3303 52.515 98.1433 52.192C97.9563 51.87 97.8633 51.502 97.8633 51.088C97.8633 50.691 97.9553 50.33 98.1403 50.005C98.3253 49.681 98.5763 49.427 98.8903 49.243C99.2043 49.059 99.5533 48.97 99.9343 48.97C100.155 48.97 100.37 49.001 100.581 49.064C100.791 49.127 100.981 49.214 101.15 49.33C101.209 49.363 101.239 49.412 101.239 49.476Z" fill="white"/>
<path d="M106.85 49.071C106.884 49.103 106.9 49.148 106.9 49.204V52.97C106.896 53.026 106.878 53.069 106.842 53.103C106.806 53.137 106.762 53.153 106.712 53.153C106.661 53.153 106.618 53.135 106.583 53.1C106.547 53.065 106.529 53.022 106.529 52.97V51.211H104.133V52.97C104.13 53.022 104.11 53.065 104.074 53.1C104.039 53.135 103.996 53.153 103.945 53.153C103.889 53.153 103.845 53.137 103.812 53.103C103.779 53.069 103.762 53.026 103.762 52.97V49.204C103.762 49.148 103.78 49.103 103.815 49.071C103.85 49.038 103.896 49.021 103.951 49.021C104.002 49.021 104.045 49.038 104.081 49.074C104.117 49.111 104.134 49.152 104.134 49.204V50.868H106.53V49.204C106.53 49.152 106.549 49.111 106.587 49.074C106.624 49.038 106.669 49.021 106.719 49.021C106.773 49.021 106.817 49.038 106.85 49.071Z" fill="white"/>
<path d="M112.247 52.857C112.28 52.893 112.297 52.935 112.297 52.98C112.297 53.033 112.28 53.074 112.247 53.105C112.214 53.136 112.171 53.152 112.121 53.152H109.954C109.903 53.152 109.86 53.136 109.827 53.102C109.794 53.068 109.777 53.027 109.777 52.974V49.197C109.777 49.146 109.794 49.103 109.827 49.071C109.86 49.038 109.903 49.021 109.954 49.021H112.121C112.171 49.021 112.214 49.038 112.247 49.071C112.28 49.103 112.297 49.146 112.297 49.197C112.297 49.25 112.28 49.291 112.247 49.322C112.214 49.353 112.171 49.369 112.121 49.369H110.148V50.849H111.855C111.906 50.849 111.948 50.868 111.982 50.901C112.015 50.934 112.032 50.976 112.032 51.027C112.032 51.08 112.015 51.121 111.982 51.152C111.948 51.183 111.906 51.199 111.855 51.199H110.148V52.803H112.121C112.171 52.804 112.214 52.822 112.247 52.857Z" fill="white"/>
<path d="M118.623 49.071C118.656 49.103 118.673 49.146 118.673 49.197V52.974C118.673 53.027 118.655 53.068 118.62 53.102C118.585 53.136 118.541 53.152 118.49 53.152C118.436 53.152 118.39 53.136 118.355 53.102C118.32 53.068 118.302 53.027 118.302 52.974V49.729L116.915 51.83C116.875 51.882 116.831 51.906 116.779 51.902H116.767C116.72 51.902 116.677 51.879 116.637 51.83L115.25 49.717V52.975C115.25 53.028 115.233 53.069 115.2 53.103C115.167 53.137 115.125 53.153 115.073 53.153C115.022 53.153 114.981 53.137 114.949 53.103C114.918 53.069 114.902 53.028 114.902 52.975V49.198C114.902 49.151 114.919 49.112 114.952 49.075C114.986 49.039 115.028 49.022 115.079 49.022C115.106 49.022 115.136 49.028 115.167 49.043C115.199 49.057 115.223 49.074 115.238 49.099L116.784 51.418L118.343 49.099C118.386 49.038 118.44 49.014 118.503 49.022C118.549 49.021 118.59 49.038 118.623 49.071Z" fill="white"/>
<path d="M121.867 53.1C121.832 53.135 121.788 53.153 121.737 53.153C121.682 53.153 121.637 53.137 121.604 53.103C121.571 53.069 121.555 53.026 121.555 52.97V49.204C121.555 49.148 121.573 49.103 121.608 49.071C121.644 49.038 121.689 49.021 121.744 49.021C121.795 49.021 121.838 49.038 121.874 49.074C121.909 49.111 121.926 49.152 121.926 49.204V52.97C121.922 53.021 121.902 53.064 121.867 53.1Z" fill="white"/>
<path d="M127.906 49.476C127.906 49.511 127.892 49.55 127.864 49.594C127.828 49.638 127.783 49.658 127.728 49.658C127.697 49.658 127.665 49.648 127.634 49.63C127.319 49.421 126.975 49.316 126.601 49.316C126.282 49.316 125.993 49.391 125.736 49.542C125.479 49.69 125.276 49.9 125.129 50.171C124.981 50.439 124.907 50.745 124.907 51.088C124.907 51.439 124.982 51.747 125.131 52.019C125.281 52.289 125.485 52.497 125.743 52.644C126 52.792 126.286 52.866 126.602 52.866C126.976 52.866 127.317 52.763 127.629 52.559C127.66 52.538 127.693 52.529 127.729 52.529C127.784 52.529 127.829 52.552 127.865 52.599C127.892 52.631 127.907 52.668 127.907 52.712C127.907 52.774 127.88 52.821 127.824 52.853C127.671 52.956 127.482 53.041 127.258 53.111C127.033 53.179 126.815 53.215 126.603 53.215C126.228 53.215 125.883 53.125 125.567 52.945C125.251 52.766 124.998 52.515 124.811 52.192C124.624 51.87 124.531 51.502 124.531 51.088C124.531 50.691 124.623 50.33 124.808 50.005C124.993 49.681 125.243 49.427 125.558 49.243C125.872 49.059 126.221 48.97 126.603 48.97C126.823 48.97 127.038 49.001 127.249 49.064C127.459 49.127 127.649 49.214 127.819 49.33C127.877 49.363 127.906 49.412 127.906 49.476Z" fill="white"/>
<path d="M133.52 52.986C133.52 53.039 133.503 53.08 133.467 53.111C133.432 53.142 133.39 53.158 133.343 53.158C133.304 53.158 133.269 53.148 133.239 53.127C133.21 53.104 133.187 53.076 133.172 53.041L132.73 51.961H130.811L130.374 53.041C130.342 53.119 130.289 53.158 130.215 53.158C130.16 53.158 130.118 53.144 130.091 53.118C130.063 53.092 130.047 53.053 130.043 53.006V52.986C130.043 52.965 130.045 52.947 130.049 52.935L131.608 49.121C131.639 49.043 131.699 49.004 131.785 49.004C131.823 49.004 131.858 49.016 131.888 49.036C131.917 49.058 131.941 49.086 131.956 49.121L133.508 52.918C133.516 52.949 133.52 52.973 133.52 52.986ZM130.947 51.613H132.588L131.761 49.593L130.947 51.613Z" fill="white"/>
<path d="M138.43 52.852C138.463 52.884 138.48 52.926 138.48 52.975C138.48 53.028 138.463 53.069 138.43 53.103C138.397 53.137 138.354 53.153 138.303 53.153H136.196C136.145 53.153 136.103 53.137 136.07 53.103C136.037 53.069 136.02 53.028 136.02 52.975V49.198C136.02 49.147 136.038 49.104 136.072 49.072C136.108 49.039 136.153 49.022 136.208 49.022C136.259 49.022 136.303 49.039 136.338 49.072C136.374 49.104 136.391 49.147 136.391 49.198V52.804H138.303C138.354 52.804 138.397 52.82 138.43 52.852Z" fill="white"/>
<path d="M147.453 51.119C147.486 51.153 147.503 51.195 147.503 51.246V52.668C147.503 52.736 147.474 52.789 147.415 52.828C147.238 52.951 147.041 53.045 146.824 53.111C146.608 53.178 146.388 53.213 146.164 53.213C145.762 53.213 145.4 53.119 145.078 52.936C144.755 52.75 144.502 52.496 144.316 52.173C144.131 51.851 144.039 51.488 144.039 51.087C144.039 50.686 144.131 50.324 144.316 50.002C144.502 49.678 144.755 49.424 145.078 49.24C145.4 49.054 145.763 48.963 146.164 48.963C146.372 48.963 146.574 48.988 146.768 49.038C146.963 49.09 147.138 49.162 147.29 49.257C147.346 49.293 147.373 49.342 147.373 49.405C147.373 49.457 147.356 49.5 147.323 49.534C147.289 49.57 147.251 49.588 147.208 49.588C147.169 49.588 147.133 49.578 147.102 49.559C146.807 49.397 146.494 49.316 146.164 49.316C145.83 49.316 145.529 49.393 145.263 49.547C144.998 49.699 144.79 49.912 144.64 50.181C144.491 50.451 144.416 50.753 144.416 51.087C144.416 51.422 144.491 51.724 144.64 51.994C144.789 52.262 144.997 52.473 145.263 52.628C145.529 52.781 145.829 52.857 146.164 52.857C146.332 52.857 146.503 52.834 146.674 52.787C146.845 52.74 146.997 52.675 147.131 52.594V51.424H146.199C146.148 51.424 146.104 51.406 146.07 51.373C146.034 51.34 146.016 51.298 146.016 51.246C146.016 51.195 146.035 51.153 146.07 51.119C146.105 51.086 146.148 51.068 146.199 51.068H147.326C147.377 51.068 147.419 51.086 147.453 51.119Z" fill="white"/>
<path d="M153.287 52.98C153.287 53.001 153.28 53.027 153.264 53.058C153.248 53.086 153.227 53.107 153.199 53.122C153.172 53.138 153.142 53.145 153.111 53.145C153.071 53.145 153.038 53.137 153.01 53.122C152.9 53.059 152.812 52.956 152.744 52.815C152.678 52.673 152.644 52.448 152.644 52.137C152.644 51.86 152.567 51.668 152.414 51.555C152.26 51.443 152.078 51.387 151.866 51.387H150.555V52.973C150.555 53.026 150.539 53.067 150.509 53.101C150.477 53.135 150.436 53.151 150.385 53.151C150.329 53.151 150.282 53.135 150.243 53.101C150.203 53.067 150.184 53.026 150.184 52.973V49.196C150.184 49.145 150.201 49.102 150.234 49.07C150.267 49.037 150.31 49.02 150.362 49.02H151.955C152.179 49.02 152.38 49.068 152.557 49.164C152.734 49.262 152.872 49.393 152.974 49.562C153.074 49.731 153.124 49.923 153.124 50.135C153.124 50.387 153.058 50.608 152.926 50.799C152.794 50.99 152.622 51.121 152.409 51.192C152.582 51.26 152.724 51.372 152.834 51.531C152.944 51.691 153.001 51.885 153.005 52.112C153.009 52.356 153.025 52.528 153.055 52.627C153.084 52.726 153.133 52.794 153.2 52.833C153.258 52.875 153.287 52.924 153.287 52.98ZM151.972 51.063C152.11 51.05 152.238 51.005 152.355 50.927C152.473 50.847 152.567 50.741 152.638 50.609C152.709 50.474 152.744 50.322 152.744 50.148C152.744 49.924 152.668 49.738 152.517 49.591C152.365 49.443 152.167 49.368 151.923 49.368H150.553V51.062H151.972V51.063Z" fill="white"/>
<path d="M159.279 52.179C159.111 52.501 158.876 52.754 158.575 52.938C158.277 53.122 157.936 53.213 157.554 53.213C157.172 53.213 156.833 53.121 156.533 52.938C156.235 52.754 156 52.501 155.831 52.179C155.662 51.857 155.578 51.492 155.578 51.087C155.578 50.678 155.662 50.312 155.831 49.989C156 49.666 156.235 49.415 156.533 49.234C156.833 49.052 157.172 48.963 157.554 48.963C157.935 48.963 158.277 49.053 158.575 49.234C158.876 49.415 159.11 49.666 159.279 49.989C159.448 50.311 159.533 50.677 159.533 51.087C159.533 51.492 159.448 51.856 159.279 52.179ZM158.951 50.17C158.815 49.899 158.626 49.69 158.385 49.541C158.142 49.391 157.865 49.315 157.554 49.315C157.243 49.315 156.967 49.39 156.725 49.541C156.482 49.689 156.293 49.899 156.158 50.17C156.022 50.438 155.954 50.744 155.954 51.087C155.954 51.43 156.022 51.735 156.158 52.006C156.294 52.274 156.483 52.485 156.725 52.633C156.967 52.783 157.243 52.858 157.554 52.858C157.865 52.858 158.142 52.784 158.385 52.633C158.626 52.485 158.815 52.274 158.951 52.006C159.086 51.735 159.154 51.43 159.154 51.087C159.154 50.744 159.086 50.438 158.951 50.17Z" fill="white"/>
<path d="M165.19 49.071C165.224 49.103 165.242 49.146 165.242 49.197V51.642C165.242 51.929 165.172 52.192 165.034 52.431C164.896 52.671 164.709 52.861 164.473 52.998C164.237 53.135 163.977 53.205 163.694 53.205C163.406 53.205 163.145 53.136 162.909 52.998C162.673 52.86 162.485 52.671 162.348 52.431C162.21 52.192 162.141 51.929 162.141 51.642V49.197C162.141 49.146 162.157 49.103 162.19 49.071C162.224 49.038 162.27 49.021 162.329 49.021C162.376 49.021 162.418 49.038 162.453 49.071C162.488 49.103 162.506 49.146 162.506 49.197V51.642C162.506 51.861 162.559 52.064 162.666 52.249C162.772 52.435 162.917 52.579 163.1 52.688C163.283 52.795 163.481 52.85 163.694 52.85C163.91 52.85 164.111 52.795 164.293 52.688C164.476 52.579 164.622 52.434 164.731 52.249C164.839 52.063 164.893 51.86 164.893 51.642V49.197C164.893 49.146 164.909 49.103 164.94 49.071C164.971 49.038 165.013 49.021 165.064 49.021C165.115 49.021 165.158 49.038 165.19 49.071Z" fill="white"/>
<path d="M170.281 49.172C170.455 49.272 170.589 49.412 170.685 49.592C170.781 49.77 170.83 49.971 170.83 50.196C170.83 50.422 170.782 50.626 170.685 50.81C170.588 50.996 170.455 51.141 170.281 51.247C170.108 51.354 169.913 51.407 169.697 51.407H168.475V52.975C168.475 53.028 168.457 53.069 168.425 53.103C168.392 53.137 168.349 53.153 168.299 53.153C168.248 53.153 168.205 53.137 168.172 53.103C168.138 53.069 168.121 53.028 168.121 52.975V49.198C168.121 49.147 168.138 49.104 168.172 49.072C168.205 49.039 168.248 49.022 168.299 49.022H169.698C169.913 49.021 170.107 49.071 170.281 49.172ZM170.25 50.816C170.394 50.65 170.464 50.445 170.464 50.195C170.464 49.953 170.394 49.754 170.25 49.6C170.109 49.447 169.924 49.369 169.697 49.369H168.475V51.063H169.697C169.924 51.063 170.109 50.98 170.25 50.816Z" fill="white"/>
<path d="M32.4023 51.088H14.4023" stroke="white" stroke-width="0.1939" stroke-miterlimit="10"/>
<path d="M192.316 51.088H174.316" stroke="white" stroke-width="0.1939" stroke-miterlimit="10"/>
<path d="M4.25391 51.152V15.324H9.72191V17.879C11.9959 16.182 14.6419 15.324 17.6139 15.324C21.2929 15.324 24.4729 16.638 27.0649 19.232C29.6589 21.825 30.9729 25.005 30.9729 28.683C30.9729 32.363 29.6589 35.542 27.0649 38.134C24.4729 40.728 21.2929 42.043 17.6139 42.043C14.6429 42.043 11.9959 41.185 9.72191 39.488V51.151H4.25391V51.152ZM17.6139 20.793C15.4199 20.793 13.5949 21.549 12.0379 23.107C10.4969 24.648 9.73991 26.445 9.72291 28.601V28.774C9.73991 30.921 10.4969 32.718 12.0379 34.259C13.5959 35.818 15.4189 36.573 17.6149 36.573C19.8089 36.573 21.6339 35.817 23.1909 34.259C24.7489 32.7 25.5059 30.876 25.5059 28.683C25.5059 26.49 24.7489 24.665 23.1909 23.107C21.6329 21.549 19.8089 20.793 17.6139 20.793Z" fill="white"/>
<path d="M101.5 42.044V25.647C101.5 24.291 101.036 23.168 100.08 22.211C99.1246 21.256 98.0006 20.792 96.6436 20.792C95.2866 20.792 94.1626 21.256 93.2076 22.211C92.2526 23.167 91.7876 24.29 91.7876 25.647V42.043H86.3196V25.647C86.3196 24.291 85.8556 23.168 84.8996 22.21C83.9446 21.256 82.8206 20.792 81.4646 20.792C80.1086 20.792 78.9836 21.256 78.0276 22.211C77.0726 23.167 76.6086 24.29 76.6086 25.647V42.043H71.1406V15.323H76.6086V16.515C78.0656 15.723 79.6916 15.323 81.4646 15.323C84.2956 15.323 86.7506 16.342 88.7596 18.35C88.8606 18.451 88.9586 18.552 89.0536 18.655C89.1486 18.552 89.2466 18.451 89.3466 18.35C91.3556 16.341 93.8106 15.323 96.6426 15.323C99.4746 15.323 101.93 16.342 103.939 18.35C105.948 20.36 106.967 22.814 106.967 25.646V42.042H101.5V42.044Z" fill="white"/>
<path d="M125.502 42.044C122.246 42.044 119.429 40.877 117.128 38.576C114.827 36.275 113.66 33.457 113.66 30.201V15.324H119.128V30.201C119.128 31.988 119.737 33.465 120.988 34.715C122.239 35.967 123.716 36.574 125.502 36.574C127.288 36.574 128.764 35.967 130.016 34.715C131.268 33.463 131.876 31.986 131.876 30.201V15.324H137.344V30.201C137.344 33.456 136.177 36.275 133.876 38.576C131.575 40.877 128.757 42.044 125.502 42.044Z" fill="white"/>
<path d="M160.214 42.0441L150.023 33.7331V42.0441H144.555V3.18005H150.023V23.7141L159.308 16.2341H168.046L152.561 28.6901L168.917 42.0441H160.214Z" fill="white"/>
<path d="M187.897 42.0439V39.4889C185.624 41.1849 182.977 42.0439 180.005 42.0439C176.326 42.0439 173.146 40.7289 170.553 38.1349C167.96 35.5429 166.645 32.362 166.645 28.684C166.645 25.006 167.96 21.826 170.553 19.233C173.146 16.639 176.325 15.325 180.005 15.325C182.976 15.325 185.623 16.182 187.897 17.88V15.325H193.365V42.0449H187.897V42.0439ZM180.005 20.793C177.812 20.793 175.987 21.549 174.429 23.107C172.871 24.665 172.114 26.489 172.114 28.683C172.114 30.878 172.871 32.7029 174.429 34.2589C175.987 35.8179 177.811 36.573 180.005 36.573C182.199 36.573 184.024 35.8169 185.582 34.2589C187.122 32.7199 187.879 30.921 187.897 28.763V28.593C187.879 26.444 187.122 24.647 185.582 23.107C184.024 21.549 182.199 20.793 180.005 20.793Z" fill="white"/>
<path d="M57.9776 15.324V17.879C56.9546 17.115 55.8526 16.531 54.6826 16.109V22.271C55.0186 22.52 55.3476 22.792 55.6616 23.107C57.2016 24.647 57.9596 26.444 57.9776 28.593V28.764C57.9596 30.921 57.2016 32.72 55.6616 34.259C54.1036 35.818 52.2806 36.573 50.0856 36.573C47.8916 36.573 46.0676 35.817 44.5096 34.259C42.9516 32.7 42.1946 30.876 42.1946 28.683C42.1946 26.49 42.9526 24.665 44.5106 23.107C45.2926 22.326 46.1416 21.745 47.0716 21.361V15.655C44.6486 16.189 42.4896 17.378 40.6346 19.232C38.0406 21.825 36.7266 25.005 36.7266 28.683C36.7266 32.363 38.0406 35.542 40.6346 38.134C43.2286 40.728 46.4076 42.043 50.0866 42.043C53.0586 42.043 55.7046 41.185 57.9796 39.488V42.043H63.4476V15.323H57.9776V15.324Z" fill="white"/>
<path fill-rule="evenodd" clip-rule="evenodd" d="M43.1562 29.067C44.2943 29.308 45.3932 29.629 46.5132 29.754C47.8492 29.904 49.0742 29.414 50.1812 28.69C52.2572 27.329 54.3882 27.231 56.5992 28.321C56.9912 28.512 57.1502 28.735 57.0842 29.219C56.4422 33.962 52.0942 36.701 47.5902 35.055C45.1302 34.156 43.6862 32.27 43.2402 29.663C43.2012 29.43 43.1742 29.194 43.1562 29.067Z" fill="#18C7EF"/>
<path d="M50.0794 4.07696C50.8222 4.07696 51.4244 3.47479 51.4244 2.73196C51.4244 1.98914 50.8222 1.38696 50.0794 1.38696C49.3365 1.38696 48.7344 1.98914 48.7344 2.73196C48.7344 3.47479 49.3365 4.07696 50.0794 4.07696Z" fill="#18C7EF"/>
<path d="M46.5844 10.72C47.5371 10.72 48.3094 9.94771 48.3094 8.99502C48.3094 8.04233 47.5371 7.27002 46.5844 7.27002C45.6317 7.27002 44.8594 8.04233 44.8594 8.99502C44.8594 9.94771 45.6317 10.72 46.5844 10.72Z" fill="#18C7EF"/>
<path d="M51.0472 16.369C52.1584 16.369 53.0592 15.4682 53.0592 14.357C53.0592 13.2458 52.1584 12.345 51.0472 12.345C49.936 12.345 49.0352 13.2458 49.0352 14.357C49.0352 15.4682 49.936 16.369 51.0472 16.369Z" fill="#18C7EF"/>
</svg>
