<svg width="205" height="205" viewBox="0 0 205 205" fill="none" xmlns="http://www.w3.org/2000/svg">
<g filter="url(#filter0_d)">
<rect x="54" y="22" width="97" height="97" rx="10" fill="#258AFF"/>
</g>
<path d="M112.197 74.5833C112.197 73.7376 111.512 73.052 110.666 73.052C109.82 73.052 109.135 73.7376 109.135 74.5833H112.197ZM110.666 78.9583L111.663 80.1209C112.002 79.83 112.197 79.4053 112.197 78.9583H110.666ZM107.628 79.5457C106.986 80.096 106.911 81.0627 107.462 81.7048C108.012 82.3469 108.979 82.4213 109.621 81.8709L107.628 79.5457ZM102.499 85.302C94.3244 85.302 87.6973 78.6749 87.6973 70.5H84.6348C84.6348 80.3663 92.633 88.3645 102.499 88.3645V85.302ZM87.6973 70.5C87.6973 62.325 94.3244 55.6979 102.499 55.6979V52.6354C92.633 52.6354 84.6348 60.6336 84.6348 70.5H87.6973ZM102.499 55.6979C110.674 55.6979 117.301 62.325 117.301 70.5H120.364C120.364 60.6336 112.366 52.6354 102.499 52.6354V55.6979ZM117.301 70.5C117.301 71.903 117.107 73.2579 116.744 74.5405L119.69 75.3746C120.129 73.8233 120.364 72.1877 120.364 70.5H117.301ZM106.602 84.7264C105.301 85.1009 103.925 85.302 102.499 85.302V88.3645C104.215 88.3645 105.876 88.1224 107.449 87.6694L106.602 84.7264ZM102.499 85.302C102.249 85.302 101.827 85.1721 101.261 84.5339C100.697 83.8974 100.119 82.8891 99.6021 81.5117C98.5732 78.7682 97.9056 74.8753 97.9056 70.5H94.8431C94.8431 75.1453 95.5466 79.4191 96.7346 82.587C97.3264 84.1654 98.0682 85.549 98.9695 86.5656C99.8692 87.5804 101.058 88.3645 102.499 88.3645V85.302ZM97.9056 70.5C97.9056 66.1246 98.5732 62.2317 99.6021 59.4882C100.119 58.1108 100.697 57.1025 101.261 56.466C101.827 55.8278 102.249 55.6979 102.499 55.6979V52.6354C101.058 52.6354 99.8692 53.4195 98.9695 54.4343C98.0682 55.4509 97.3264 56.8346 96.7346 58.4129C95.5466 61.5809 94.8431 65.8546 94.8431 70.5H97.9056ZM102.499 55.6979C102.75 55.6979 103.172 55.8278 103.738 56.466C104.302 57.1025 104.88 58.1108 105.397 59.4882C106.425 62.2317 107.093 66.1246 107.093 70.5H110.156C110.156 65.8546 109.452 61.5809 108.264 58.4129C107.672 56.8346 106.931 55.4509 106.029 54.4343C105.13 53.4195 103.94 52.6354 102.499 52.6354V55.6979ZM117.301 78.6666C117.301 82.3313 114.331 85.302 110.666 85.302V88.3645C116.022 88.3645 120.364 84.0226 120.364 78.6666H117.301ZM110.666 85.302C107.001 85.302 104.031 82.3313 104.031 78.6666H100.968C100.968 84.0226 105.31 88.3645 110.666 88.3645V85.302ZM104.031 78.6666C104.031 75.002 107.001 72.0312 110.666 72.0312V68.9687C105.31 68.9687 100.968 73.3106 100.968 78.6666H104.031ZM110.666 72.0312C114.331 72.0312 117.301 75.002 117.301 78.6666H120.364C120.364 73.3106 116.022 68.9687 110.666 68.9687V72.0312ZM109.135 74.5833V78.9583H112.197V74.5833H109.135ZM109.669 77.7957L107.628 79.5457L109.621 81.8709L111.663 80.1209L109.669 77.7957ZM118.833 68.9687H86.166V72.0312H118.833V68.9687Z" fill="white"/>
<defs>
<filter id="filter0_d" x="0" y="0" width="205" height="205" filterUnits="userSpaceOnUse" color-interpolation-filters="sRGB">
<feFlood flood-opacity="0" result="BackgroundImageFix"/>
<feColorMatrix in="SourceAlpha" type="matrix" values="0 0 0 0 0 0 0 0 0 0 0 0 0 0 0 0 0 0 127 0" result="hardAlpha"/>
<feOffset dy="32"/>
<feGaussianBlur stdDeviation="27"/>
<feColorMatrix type="matrix" values="0 0 0 0 0.144886 0 0 0 0 0.539681 0 0 0 0 1 0 0 0 0.224553 0"/>
<feBlend mode="normal" in2="BackgroundImageFix" result="effect1_dropShadow"/>
<feBlend mode="normal" in="SourceGraphic" in2="effect1_dropShadow" result="shape"/>
</filter>
</defs>
</svg>
