<svg width="551" height="110" viewBox="0 0 551 110" fill="none" xmlns="http://www.w3.org/2000/svg">
<path d="M127.523 77.6865C127.123 76.7537 95.2757 13.6585 94.776 12.7923C93.1104 8.76145 90.1455 5.23025 86.1146 2.86501C76.2206 -2.93149 63.4949 0.399833 57.6984 10.2939C53.7342 17.0897 54.034 25.1849 57.8317 31.4811C58.2314 32.4138 88.713 92.8107 89.2127 93.6768C89.6125 94.6096 90.0455 95.509 90.5786 96.3752C92.2442 100.406 95.2091 103.904 99.24 106.303C109.134 112.099 121.86 108.768 127.656 98.8736C131.62 92.0778 131.321 83.9827 127.523 77.6865Z" fill="#696969"/>
<path d="M90.7785 34.9789C94.2763 31.2811 96.4084 26.2841 96.4084 20.7874C96.3751 9.29438 87.0807 0 75.621 0C68.5586 0 62.329 3.5312 58.5979 8.89462C57.8983 9.62751 6.19625 73.3557 5.62993 74.1552C2.13204 77.8863 0 82.8832 0 88.3799C0 99.8397 9.29438 109.134 20.7541 109.134C27.8165 109.134 34.0461 105.603 37.7772 100.239C38.4767 99.5065 90.1788 35.7784 90.7785 34.9789Z" fill="#181818"/>
<path d="M179.758 34.9788C183.256 31.281 185.388 26.284 185.388 20.7873C185.388 9.32759 176.093 0.0332031 164.634 0.0332031C157.571 0.0332031 151.342 3.5644 147.611 8.92783C146.911 9.66072 95.2089 73.3889 94.6426 74.1884C91.1447 77.8862 89.0127 82.8831 89.0127 88.3798C89.0127 99.8396 98.3071 109.134 109.767 109.134C116.829 109.134 123.059 105.603 126.79 100.239C127.456 99.5064 179.158 35.7783 179.758 34.9788Z" fill="#181818"/>
<g clip-path="url(#clip0)">
<path d="M198.212 83.3159V39.2093H212.67V43.0403C215.935 39.8755 220.165 38.3098 225.329 38.3098C230.359 38.3098 234.557 39.8755 237.955 42.9737C241.353 46.0718 243.018 50.1693 243.018 55.2662V83.3159H227.861V58.3644C227.861 55.9991 227.161 54.2002 225.795 52.9343C224.429 51.7017 222.797 51.0688 220.865 51.0688C218.766 51.0688 216.967 51.735 215.568 53.0676C214.136 54.4001 213.436 56.1657 213.436 58.3644V83.3159H198.212Z" fill="#181818"/>
<path d="M270.902 38.3101C278.298 38.3101 284.394 40.542 289.224 45.006C294.021 49.47 296.453 54.9 296.453 61.2962C296.453 67.6923 294.055 73.089 289.224 77.553C284.394 81.9837 278.298 84.2156 270.902 84.2156C263.44 84.2156 257.31 81.9837 252.513 77.553C247.683 73.1224 245.284 67.6923 245.284 61.2962C245.284 54.9 247.683 49.47 252.513 45.006C257.31 40.542 263.44 38.3101 270.902 38.3101ZM278.398 53.9339C276.365 51.9352 273.867 50.9024 270.902 50.9024C267.937 50.9024 265.405 51.9018 263.407 53.9339C261.374 55.9327 260.375 58.3646 260.375 61.1962C260.375 64.1611 261.374 66.6263 263.373 68.5918C265.372 70.5905 267.871 71.5566 270.935 71.5566C273.934 71.5566 276.432 70.5572 278.431 68.5918C280.463 66.6263 281.462 64.1278 281.462 61.1962C281.429 58.3646 280.43 55.9327 278.398 53.9339Z" fill="#181818"/>
<path d="M308.547 83.3164L292.689 39.2097H307.047L316.375 66.36L325.603 39.2097H339.395L348.622 66.36L357.65 39.2097H371.642L355.885 83.3164H341.826L332.332 56.5992L322.538 83.3164H308.547Z" fill="#181818"/>
<path d="M390.93 38.3101C396.327 38.3101 400.957 40.0757 404.822 43.6402V39.2095H419.446V83.3162H404.822V78.7856C401.024 82.3834 396.393 84.2156 390.93 84.2156C384.467 84.2156 379.037 81.9837 374.673 77.5197C370.309 73.0557 368.11 67.6257 368.11 61.2295C368.11 54.9 370.309 49.5033 374.673 45.0393C379.037 40.542 384.467 38.3101 390.93 38.3101ZM401.59 53.7008C399.558 51.6687 397.06 50.6359 394.095 50.6359C391.13 50.6359 388.598 51.6687 386.599 53.7008C384.567 55.7329 383.568 58.2314 383.568 61.1962C383.568 64.2277 384.567 66.7595 386.599 68.7916C388.631 70.8237 391.13 71.8564 394.095 71.8564C397.06 71.8564 399.591 70.8237 401.59 68.7916C403.622 66.7595 404.622 64.2277 404.622 61.1962C404.622 58.2647 403.622 55.7329 401.59 53.7008Z" fill="#181818"/>
<path d="M460.821 51.1024L446.929 52.5349C446.63 49.7699 444.997 48.3707 442.099 48.3707C440.866 48.3707 439.834 48.6372 439.034 49.2036C438.235 49.7699 437.835 50.5028 437.835 51.3689C437.835 52.2018 438.135 52.868 438.734 53.3677C439.334 53.8674 440.367 54.3338 441.866 54.7336L448.562 56.4992C453.092 57.6984 456.424 59.2975 458.522 61.3296C460.621 63.3617 461.687 66.0601 461.687 69.3581C461.687 73.9886 459.888 77.5864 456.324 80.2182C452.759 82.8499 448.029 84.1824 442.099 84.1824C436.269 84.1824 431.439 82.9832 427.608 80.5513C423.777 78.1194 421.778 74.8547 421.611 70.6906L435.869 69.3581C436.069 70.9571 436.736 72.1564 437.868 72.9892C439.001 73.822 440.4 74.2218 441.999 74.2218C445.164 74.2218 446.763 73.0891 446.763 70.8572C446.763 70.0243 446.463 69.3581 445.83 68.825C445.197 68.292 444.164 67.8257 442.665 67.3926L435.503 65.4271C427.375 63.2284 423.31 58.9643 423.31 52.6348C423.31 48.3707 425.109 44.9062 428.707 42.2411C432.305 39.5761 436.736 38.2435 442.032 38.2435C447.429 38.2435 451.86 39.3762 455.258 41.6748C458.622 44.0067 460.488 47.1382 460.821 51.1024Z" fill="#181818"/>
<path d="M496.699 67.6923L509.458 71.1569C507.726 75.2877 504.795 78.5191 500.697 80.7844C496.6 83.0497 492.002 84.2156 486.905 84.2156C479.576 84.2156 473.58 82.017 468.983 77.6529C464.352 73.2889 462.054 67.8256 462.054 61.3295C462.054 54.9333 464.386 49.5033 469.083 45.0393C473.747 40.542 479.643 38.3101 486.705 38.3101C493.968 38.3101 499.831 40.4421 504.328 44.7395C508.792 49.0369 511.024 54.367 511.024 60.7632V64.8607H476.179C476.845 67.2259 478.177 69.1248 480.076 70.5905C482.008 72.0563 484.274 72.7559 486.872 72.7559C491.569 72.7559 494.834 71.0569 496.699 67.6923ZM486.705 49.4034C484.34 49.4034 482.308 50.003 480.543 51.2356C478.81 52.4349 477.511 54.1005 476.645 56.1659H496.5C495.767 54.1005 494.534 52.4682 492.868 51.2356C491.203 50.003 489.137 49.4034 486.705 49.4034Z" fill="#181818"/>
<path d="M550.168 51.1023L536.276 52.5348C535.976 49.7698 534.344 48.3706 531.446 48.3706C530.213 48.3706 529.18 48.6372 528.381 49.2035C527.581 49.7698 527.182 50.5027 527.182 51.3688C527.182 52.2017 527.481 52.8679 528.081 53.3676C528.681 53.8673 529.713 54.3337 531.212 54.7335L537.908 56.4991C542.439 57.6983 545.77 59.2974 547.869 61.3295C549.968 63.3616 551.034 66.06 551.034 69.358C551.034 73.9885 549.235 77.5863 545.67 80.2181C542.106 82.8498 537.375 84.1823 531.446 84.1823C525.616 84.1823 520.785 82.9831 516.954 80.5512C513.123 78.1193 511.125 74.8546 510.958 70.6905L525.216 69.358C525.416 70.957 526.082 72.1563 527.215 72.9891C528.347 73.8219 529.747 74.2217 531.346 74.2217C534.51 74.2217 536.109 73.089 536.109 70.8571C536.109 70.0242 535.81 69.358 535.177 68.825C534.544 68.2919 533.511 67.8256 532.012 67.3925L524.85 65.427C516.688 63.295 512.624 59.0309 512.624 52.7014C512.624 48.4373 514.423 44.9727 518.02 42.3076C521.618 39.6426 526.049 38.3101 531.346 38.3101C536.742 38.3101 541.173 39.4427 544.571 41.7413C548.002 44.0066 549.868 47.1381 550.168 51.1023Z" fill="#181818"/>
</g>
<defs>
<clipPath id="clip0">
<rect width="352.787" height="45.8723" fill="white" transform="translate(198.213 38.3101)"/>
</clipPath>
</defs>
</svg>
